<svg xmlns="http://www.w3.org/2000/svg" viewBox="0 0 64 64"><rect width="64" height="64" rx="14" fill="#fff"/><path transform="translate(2.03 -5.00) scale(0.2879)" d="M 69 66.2 C 64.2 66.5, 58.2 67.5, 54.9 68.5 C 54.1 68.8, 53.4 69, 53.2 69 C 53 69, 52.4 69.2, 51.9 69.5 C 51.3 69.8, 50.7 70, 50.5 70 C 50.4 70, 50 70.2, 49.7 70.3 C 49.4 70.5, 48.4 71, 47.5 71.4 C 39.3 75, 31.8 82.3, 28.6 89.9 C 28.3 90.7, 27.8 91.7, 27.6 92.1 C 25.7 96.2, 24.9 102, 25.1 109.3 C 25.2 113.9, 25.4 115, 26.7 119.4 C 28.6 125.6, 34.7 133.1, 40.9 136.9 C 44.4 139, 47.7 140.8, 49.1 141.4 C 50.6 142, 51.5 142.4, 53.8 143.5 C 54.4 143.8, 55 144, 55.1 144 C 55.3 144, 55.8 144.2, 56.4 144.5 C 56.9 144.8, 57.5 145, 57.7 145 C 57.9 145, 58.4 145.2, 58.9 145.5 C 59.5 145.8, 60 146, 60.3 146 C 60.5 146, 61.1 146.2, 61.6 146.5 C 62.2 146.8, 62.8 147, 63 147 C 63.2 147, 63.8 147.2, 64.4 147.5 C 64.9 147.8, 65.6 148, 65.9 148 C 66.2 148, 66.9 148.2, 67.5 148.5 C 68.1 148.8, 68.8 149, 69.1 149 C 69.3 149, 69.9 149.2, 70.3 149.4 C 70.8 149.6, 71.7 149.9, 72.4 150.1 C 74.2 150.6, 76.1 151.3, 79.1 152.6 C 86.7 155.8, 87.9 162.5, 81.5 166.2 C 79.5 167.3, 77.3 167.7, 73.4 167.8 C 68.1 167.8, 64.7 167.2, 59 165.2 C 55.6 164, 55.2 163.8, 53.5 162.9 C 52.7 162.4, 51.9 162, 51.8 162 C 51 162, 43.3 156.8, 42.3 155.6 C 41.8 155, 41.2 154.5, 41 154.5 C 40.8 154.5, 38.7 156.8, 36.4 159.7 C 34.1 162.5, 31.1 166.2, 29.8 167.8 C 27.4 170.7, 26.6 171.7, 23.3 175.7 C 22.4 176.9, 21.4 178.1, 21.2 178.3 C 20.7 178.8, 20.6 179.8, 21 179.8 C 21.1 179.8, 21.8 180.4, 22.6 181.2 C 25.6 184, 34.6 189.4, 40.4 191.9 C 44.3 193.5, 45.1 193.9, 47.1 194.4 C 48.1 194.7, 49.7 195.2, 50.6 195.5 C 51.6 195.8, 52.7 196, 53.2 196 C 53.6 196, 54.4 196.2, 55 196.4 C 55.6 196.6, 57 196.9, 58.2 197 C 59.4 197.1, 61.4 197.4, 62.8 197.7 C 65.8 198.2, 83.3 198.3, 85.4 197.8 C 86.1 197.6, 87.3 197.4, 88.1 197.2 C 89 197.1, 90.2 196.8, 91 196.6 C 91.8 196.3, 92.9 196.1, 93.6 196 C 94.3 195.9, 95.4 195.6, 96.1 195.4 C 96.8 195.1, 97.7 194.8, 98.1 194.7 C 105.3 192.3, 110.2 188.7, 116.2 181.4 C 119.3 177.6, 121.3 172.9, 122.8 165.8 C 123.2 163.8, 123.2 150.3, 122.8 148.8 C 122.6 148.1, 122.3 147, 122.1 146.3 C 122 145.5, 121.6 144.5, 121.4 144 C 121.2 143.5, 120.8 142.5, 120.5 141.8 C 120.2 141, 119.8 140.2, 119.6 140 C 119.4 139.8, 119.2 139.3, 119 139 C 118 136.1, 111.9 129.9, 108 127.5 C 107.4 127.1, 106.4 126.5, 105.8 126.1 C 103.4 124.6, 100.8 123.1, 99.6 122.5 C 98.9 122.2, 98 121.7, 97.5 121.5 C 96.9 121.2, 96.4 121, 96.2 121 C 96 121, 95.4 120.8, 94.9 120.5 C 94.3 120.2, 93.7 120, 93.4 120 C 93.2 120, 92.5 119.8, 91.9 119.5 C 90.7 119, 89.6 118.6, 87.6 118 C 86.7 117.7, 85.3 117.3, 84.4 117 C 83.6 116.8, 82.5 116.4, 82 116.3 C 81.5 116.1, 80.6 115.7, 79.9 115.5 C 79.2 115.3, 77.6 114.8, 76.4 114.4 C 75.1 114, 73.8 113.5, 73.5 113.3 C 73.2 113.2, 72.7 113, 72.5 113 C 71.8 113, 66.5 110.4, 65.3 109.4 C 61.9 106.7, 62.1 101.3, 65.7 98.9 C 68.3 97.2, 73.8 96.5, 77.8 97.4 C 78.8 97.6, 80.2 97.9, 80.9 98 C 86 98.9, 96.4 103.8, 100.2 107 C 100.7 107.4, 101.1 107.8, 101.3 107.8 C 101.4 107.8, 102.6 106.3, 104 104.4 C 105.3 102.6, 106.9 100.6, 107.5 99.9 C 108.2 99.2, 109.2 97.9, 109.9 97 C 110.5 96.1, 112.3 93.7, 113.9 91.8 C 115.4 89.8, 117 87.6, 117.4 87 C 117.8 86.4, 118.6 85.3, 119.2 84.5 C 119.8 83.8, 120.3 83.1, 120.3 83 C 120.3 82.5, 117.6 80.2, 115.1 78.6 C 113.8 77.7, 112.3 76.7, 112 76.5 C 111.6 76.2, 111.2 76, 111.1 76 C 111 76, 110.7 75.8, 110.5 75.7 C 110 75.2, 106.5 73.4, 104.4 72.5 C 103.4 72, 102.3 71.5, 101.8 71.4 C 101.4 71.2, 100.9 71, 100.7 71 C 100.6 71, 100 70.8, 99.4 70.5 C 98.3 70, 97.5 69.8, 94.3 69 C 91.3 68.3, 89.2 67.7, 88.5 67.5 C 86.5 66.8, 73.5 65.8, 69 66.2 " fill="#1a1a1a" fill-rule="evenodd"/><circle cx="49" cy="44.8" r="7.3" fill="#81d215"/></svg>
